<svg width="64" height="64" viewBox="0 0 64 64" fill="none" xmlns="http://www.w3.org/2000/svg">
<path d="M55.9997 32.1818C55.9997 47.1515 41.5235 58.6667 28.3633 58.6667C15.2031 58.6667 5.33301 44.7123 5.33301 31.108C5.33301 17.5038 17.3965 8 30.6663 8C43.9362 8 55.9997 17.2121 55.9997 32.1818Z" fill="#D0E4FF"/>
<path fill-rule="evenodd" clip-rule="evenodd" d="M51.1197 5.3335H31.4147C30.4323 5.3335 29.5849 5.88872 29.1947 6.69007C25.8362 6.84142 24.0029 8.16399 24.0029 11.0582C24.0029 14.1194 26.1236 18.0741 29.1768 18.6066C30.0054 23.5686 34.3091 27.6278 39.5098 28.3101V32.0002H31.4081C31.3466 32.0002 31.2967 32.05 31.2967 32.1116V34.5554C31.2967 34.617 31.3466 34.6668 31.4081 34.6668H49.4318C49.4933 34.6668 49.5432 34.617 49.5432 34.5554V32.1116C49.5432 32.05 49.4933 32.0002 49.4318 32.0002H42.2468V28.3942C47.8398 28.0955 52.5987 23.8706 53.4873 18.6339C56.5737 18.2336 58.6687 14.2687 58.6687 11.0582C58.6687 8.20535 56.6467 6.87955 53.3432 6.69728C52.9546 5.89205 52.1051 5.3335 51.1197 5.3335ZM29.0252 15.8466L28.9772 9.28199C28.0272 9.33707 26.7376 9.63972 26.7376 11.0582C26.7376 12.2704 27.2478 15.1435 29.0252 15.8466ZM55.9394 11.0582C55.9394 12.3035 55.4425 15.3194 53.6289 15.9095L53.5805 9.27896C54.6499 9.32537 55.9394 9.61122 55.9394 11.0582ZM31.7699 16.8723L31.7052 8.00016H50.8345L50.8993 16.8913C50.8993 21.615 46.5969 25.7444 41.6142 25.7444H41.055C36.0723 25.7444 31.7699 21.615 31.7699 16.8723Z" fill="#535FD7"/>
</svg>
