<svg width="64" height="64" viewBox="0 0 64 64" fill="none" xmlns="http://www.w3.org/2000/svg">
<path d="M56.0007 32.1818C56.0007 47.1515 41.5245 58.6667 28.3643 58.6667C15.2041 58.6667 5.33398 44.7123 5.33398 31.108C5.33398 17.5038 17.3975 8 30.6673 8C43.9372 8 56.0007 17.2121 56.0007 32.1818Z" fill="#E1E1FF"/>
<path fill-rule="evenodd" clip-rule="evenodd" d="M58.667 8.25755V25.924C58.667 26.9836 58.3998 28.0371 57.867 29.0847C57.3326 30.1352 56.635 31.1496 55.771 32.1354C54.907 33.1196 53.9198 34.0526 52.811 34.9313C51.7006 35.8115 50.5758 36.5953 49.435 37.2826C48.2926 37.9714 47.1838 38.5442 46.107 38.9994C45.0302 39.4545 44.0862 39.7665 43.275 39.9369L42.891 40.0002L42.539 39.9369C41.707 39.7665 40.7422 39.4545 39.643 38.9994C38.5438 38.5442 37.403 37.9714 36.219 37.2826C35.035 36.5953 33.8734 35.8115 32.731 34.9313C31.5902 34.0526 30.571 33.1196 29.675 32.1354C28.779 31.1496 28.0542 30.1352 27.5006 29.0847C26.9438 28.0371 26.667 26.9836 26.667 25.924V8.25755L27.979 8.06613L42.699 5.3335L57.707 8.06613L58.667 8.25755ZM42.705 7.89127L42.5274 7.85661L29.8938 9.98936V21.1354H42.7036V37.0007C43.5228 36.8138 44.414 36.5289 45.3772 36.1446C46.3388 35.7602 47.2892 35.3065 48.2268 34.782C49.166 34.2575 50.0684 33.6757 50.9372 33.0351C51.806 32.3945 52.5724 31.7057 53.2428 30.9717C53.9116 30.2392 54.4444 29.4765 54.8428 28.6837C55.2428 27.8924 55.4412 27.0875 55.4412 26.2721V21.1354H42.705V7.89127ZM42.705 21.1354H42.7036V21.1354H42.705V21.1354Z" fill="#535FD7"/>
</svg>
