<svg width="64" height="64" viewBox="0 0 64 64" fill="none" xmlns="http://www.w3.org/2000/svg">
<path d="M55.9997 32.1818C55.9997 47.1515 41.5235 58.6667 28.3633 58.6667C15.2031 58.6667 5.33301 44.7123 5.33301 31.108C5.33301 17.5038 17.3965 8 30.6663 8C43.9362 8 55.9997 17.2121 55.9997 32.1818Z" fill="#D7F7D9"/>
<path fill-rule="evenodd" clip-rule="evenodd" d="M47.4575 17.577H54.3241C55.7018 17.5776 56.9975 18.2527 57.8163 19.3965C58.635 20.5403 58.8796 22.0171 58.4756 23.3768L54.3241 36.8553C53.7629 38.7386 51.9233 39.9912 50.0122 39.9912H32.6678V40.0002H29.7789V40.0002H26.1668C25.5921 40.0002 25.041 39.7645 24.6346 39.345C24.2283 38.9256 24 38.3566 24 37.7634V19.8137C24 18.5784 24.9701 17.577 26.1668 17.577H31.6011C37.603 16.34 38.6583 13.0364 38.6583 9.0237C38.6583 5.25258 43.878 3.77858 46.1228 7.45799C47.3289 9.62873 47.8981 11.9821 47.8303 14.5181L47.4575 17.577ZM32.6678 36.9323H50.0136C50.7496 36.9323 51.4146 36.4579 51.5789 35.9068L55.7213 22.4586C55.8439 22.0461 55.7699 21.5997 55.5153 21.244C55.2451 20.8665 54.8025 20.6359 54.3255 20.6357H43.8455L44.6409 16.9035C44.7482 16.4 44.8287 15.8908 44.8783 15.418L44.9095 15.0804C45.0853 12.8567 44.664 10.8623 43.6976 9.11763C43.0069 7.9856 41.5485 8.3351 41.5485 9.02359C41.5485 15.1457 39.0272 18.9888 32.6678 20.4669V36.9323ZM29.7789 20.6357V36.9412H26.8903V20.6357H29.7789Z" fill="#535FD7"/>
</svg>
