<svg width="584" height="536" viewBox="0 0 584 536" fill="none" xmlns="http://www.w3.org/2000/svg">
<path d="M407.97 68.8237C443.784 73.8222 475.667 97.2302 500.995 124.534C526.315 151.831 545.026 182.963 554.502 203.288C557.924 210.628 556.844 219.86 552.073 230.512C547.307 241.156 538.894 253.128 527.808 265.875C505.64 291.364 472.861 319.859 437.46 346.884C402.063 373.906 364.065 399.444 331.472 419.019C315.176 428.806 300.235 437.101 287.649 443.344C275.053 449.592 264.848 453.77 258.013 455.346C223.727 463.252 180.647 448.483 139.308 425.892C97.9986 403.318 58.5505 373.002 31.5797 349.998C18.143 338.537 9.64124 326.366 4.99023 313.63C0.338965 300.893 -0.471977 287.561 1.51746 273.765C5.49946 246.15 20.6907 216.724 38.6806 186.594C56.5243 156.708 94.7426 148.338 132.972 146.454C149.785 145.626 166.55 146.054 181.517 146.436C183.545 146.488 185.54 146.539 187.498 146.586C203.869 146.977 217.689 147.088 226.263 144.976C234.871 142.856 244.943 136.2 256.547 127.697C259.628 125.44 262.82 123.05 266.126 120.574C275.306 113.7 285.366 106.166 296.377 98.9818C326.317 79.4464 363.17 62.5708 407.97 68.8237Z" stroke="#FF4143"/>
<path d="M383.001 467C302.001 505 242 556 136.001 526C-7.00024 474 34.9106 281.578 71.0001 221C99 174 35.7838 95.7364 71.0001 48.7809C127.085 -25.9996 325 1.60625 397 30.0005C610 114 607 365 553 422C483.842 495.001 464.001 429 383.001 467Z" fill="#FFD9D9"/>
<path d="M31.5 126C31.5 124.067 33.067 122.5 35 122.5H553C554.933 122.5 556.5 124.067 556.5 126V496C556.5 497.933 554.933 499.5 553 499.5H35C33.067 499.5 31.5 497.933 31.5 496V126Z" fill="#F5F5FA" stroke="#F9E2D6"/>
<rect x="72" y="212" width="140" height="192" rx="5" fill="white"/>
<rect x="224" y="212" width="140" height="192" rx="5" fill="white"/>
<rect x="376" y="212" width="140" height="192" rx="5" fill="white"/>
<rect x="114" y="322" width="55" height="6" rx="3" fill="#E2E2F0"/>
<rect x="266" y="322" width="55" height="6" rx="3" fill="#E2E2F0"/>
<rect x="418" y="322" width="55" height="6" rx="3" fill="#E2E2F0"/>
<rect x="94" y="336" width="95" height="4" rx="2" fill="#E2E2F0"/>
<rect x="246" y="336" width="95" height="4" rx="2" fill="#E2E2F0"/>
<rect x="398" y="336" width="95" height="4" rx="2" fill="#E2E2F0"/>
<rect x="101" y="346" width="81" height="4" rx="2" fill="#E2E2F0"/>
<rect x="253" y="346" width="81" height="4" rx="2" fill="#E2E2F0"/>
<rect x="405" y="346" width="81" height="4" rx="2" fill="#E2E2F0"/>
<rect x="114" y="356" width="55" height="4" rx="2" fill="#E2E2F0"/>
<rect x="266" y="356" width="55" height="4" rx="2" fill="#E2E2F0"/>
<rect x="418" y="356" width="55" height="4" rx="2" fill="#E2E2F0"/>
<g filter="url(#filter0_d)">
<path fill-rule="evenodd" clip-rule="evenodd" d="M32 127C32 124.791 33.7909 123 36 123H552C554.209 123 556 124.791 556 127V155H32V127Z" fill="white"/>
</g>
<path d="M76.5709 142.913C77.2959 142.913 77.9165 142.813 78.4326 142.613C78.9487 142.413 79.3389 142.137 79.6033 141.785C79.8678 141.433 80 141.035 80 140.591C80 140.052 79.8614 139.633 79.5842 139.333C79.3069 139.033 78.9806 138.826 78.6053 138.713C78.23 138.6 77.7566 138.5 77.185 138.413C76.7329 138.343 76.4088 138.276 76.2126 138.211C76.0164 138.146 75.9183 138.03 75.9183 137.865C75.9183 137.717 76.0079 137.598 76.187 137.506C76.3661 137.415 76.6476 137.37 77.0315 137.37C77.748 137.37 78.4134 137.543 79.0276 137.891L79.7569 136.209C79.4242 136.017 79.0105 135.87 78.5157 135.765C78.021 135.661 77.522 135.609 77.0187 135.609C76.3107 135.609 75.7029 135.711 75.1954 135.915C74.6878 136.12 74.3018 136.398 74.0374 136.75C73.773 137.102 73.6407 137.504 73.6407 137.956C73.6407 138.504 73.7815 138.93 74.063 139.235C74.3445 139.539 74.6793 139.748 75.0674 139.861C75.4555 139.974 75.9268 140.065 76.4813 140.135C76.9163 140.196 77.2341 140.259 77.4345 140.324C77.635 140.389 77.7352 140.5 77.7352 140.656C77.7352 140.813 77.6521 140.933 77.4857 141.015C77.3194 141.098 77.04 141.139 76.6476 141.139C76.2211 141.139 75.7904 141.08 75.3553 140.963C74.9203 140.846 74.5449 140.687 74.2293 140.487L73.5 142.183C73.8412 142.4 74.2933 142.576 74.8563 142.711C75.4193 142.846 75.9908 142.913 76.5709 142.913Z" fill="#535FD7"/>
<path d="M51.657 142.913C52.4835 142.913 53.186 142.775 53.7645 142.498C54.343 142.221 54.7769 141.851 55.0661 141.388C55.3554 140.925 55.5 140.408 55.5 139.836C55.5 139.173 55.3409 138.649 55.0227 138.263C54.7045 137.877 54.3285 137.596 53.8946 137.419C53.4607 137.242 52.9132 137.076 52.2521 136.922C51.6653 136.785 51.2397 136.654 50.9752 136.527C50.7107 136.4 50.5785 136.209 50.5785 135.955C50.5785 135.701 50.6901 135.494 50.9132 135.335C51.1364 135.176 51.4917 135.097 51.9793 135.097C52.7562 135.097 53.5579 135.342 54.3843 135.832L55.1405 133.831C54.719 133.558 54.2314 133.352 53.6777 133.211C53.124 133.07 52.562 133 51.9917 133C51.157 133 50.4525 133.136 49.8781 133.409C49.3037 133.681 48.8719 134.051 48.5826 134.518C48.2934 134.986 48.1488 135.51 48.1488 136.091C48.1488 136.754 48.3058 137.28 48.6198 137.671C48.9339 138.061 49.3099 138.345 49.7479 138.522C50.186 138.699 50.7314 138.864 51.3843 139.019C51.9793 139.164 52.4112 139.302 52.6798 139.434C52.9483 139.566 53.0826 139.768 53.0826 140.04C53.0826 140.557 52.6116 140.816 51.6694 140.816C51.1736 140.816 50.6694 140.73 50.157 140.557C49.6446 140.385 49.1942 140.158 48.8058 139.876L48 141.865C48.4132 142.182 48.9504 142.436 49.6116 142.627C50.2727 142.818 50.9545 142.913 51.657 142.913Z" fill="#FF5A00"/>
<path fill-rule="evenodd" clip-rule="evenodd" d="M65.3105 137.5V142.738H63.1955V137.5H62.499V135.686H63.1955V135.485C63.1955 133.631 64.4367 133 65.8298 133C66.0285 133 66.1648 133.008 66.3306 133.018L66.3306 133.018C66.3761 133.021 66.4238 133.024 66.4756 133.027V134.907C66.3997 134.894 66.2857 134.881 66.1337 134.881C65.5891 134.881 65.3105 135.109 65.3105 135.539V135.686H66.349V137.5H65.3105ZM58.4696 142.913C59.1535 142.913 59.6347 142.712 59.9767 142.349L60.0906 142.738H61.9777V138.373C61.9777 136.761 61.3951 135.512 59.1028 135.512C58.001 135.512 57.1018 135.888 56.3926 136.385L57.1778 137.889C57.697 137.621 58.2669 137.446 58.8495 137.446C59.5334 137.446 59.8627 137.782 59.8627 138.212V138.467C59.6221 138.359 59.1661 138.212 58.5836 138.212C57.0132 138.212 56 139.139 56 140.549C56 142.08 57.1651 142.913 58.4696 142.913ZM58.7504 141.194C58.2565 141.194 57.8512 140.938 57.8512 140.468C57.8512 140.012 58.2311 139.716 58.7377 139.716C59.2443 139.716 59.6369 139.985 59.6369 140.468C59.6369 140.938 59.2569 141.194 58.7504 141.194ZM69.9983 142.913C71.7207 142.913 72.6325 141.771 72.8225 141.355L71.4294 140.213C71.3027 140.415 70.8341 140.965 70.0363 140.965C69.2511 140.965 68.6812 140.428 68.6305 139.797H72.9871C72.9998 139.636 72.9998 139.488 72.9998 139.353C72.9998 136.949 71.8473 135.512 69.7323 135.512C67.782 135.512 66.4649 137.164 66.4649 139.233C66.4649 141.315 67.8073 142.913 69.9983 142.913ZM70.0343 137.325C69.3377 137.325 69.0085 137.876 68.9578 138.373H71.1108C71.0855 137.809 70.6929 137.325 70.0343 137.325Z" fill="#FF5A00"/>
<path fill-rule="evenodd" clip-rule="evenodd" d="M82.6199 145V142.221C82.7595 142.394 83.3815 142.925 84.397 142.925C86.3265 142.925 87.5451 141.425 87.5451 139.26C87.5451 137.122 86.1996 135.609 84.2828 135.609C83.3054 135.609 82.6707 136.1 82.4803 136.326V135.781H80.5V145H82.6199ZM83.9906 140.973C83.1528 140.973 82.5562 140.349 82.5562 139.247C82.5562 138.317 83.0766 137.547 83.9906 137.547C84.8411 137.547 85.425 138.211 85.425 139.247C85.425 140.269 84.8538 140.973 83.9906 140.973ZM93.9998 135.781L90.6993 145H88.6937L89.595 142.527L87.107 135.781H89.3792L90.5597 139.791L91.791 135.781H93.9998Z" fill="#535FD7"/>
<path d="M31.5 60C31.5 58.067 33.067 56.5 35 56.5H553C554.933 56.5 556.5 58.067 556.5 60V108C556.5 109.933 554.933 111.5 553 111.5H35C33.067 111.5 31.5 109.933 31.5 108V60Z" fill="white" stroke="#F9E2D6"/>
<circle cx="525" cy="84" r="15.5" fill="white" stroke="#DFDFE8"/>
<path fill-rule="evenodd" clip-rule="evenodd" d="M520.244 79.2441C519.919 79.5695 519.919 80.0972 520.244 80.4226L523.821 84L520.244 87.5774C519.919 87.9028 519.919 88.4305 520.244 88.7559C520.57 89.0814 521.097 89.0814 521.423 88.7559L525 85.1785L528.577 88.7559C528.903 89.0814 529.43 89.0814 529.756 88.7559C530.081 88.4305 530.081 87.9028 529.756 87.5774L526.179 84L529.756 80.4226C530.081 80.0972 530.081 79.5695 529.756 79.2441C529.43 78.9186 528.903 78.9186 528.577 79.2441L525 82.8215L521.423 79.2441C521.097 78.9186 520.57 78.9186 520.244 79.2441Z" fill="#BDBDBD"/>
<rect x="71" y="75" width="117" height="8" rx="4" fill="#E9E9F6"/>
<circle cx="54" cy="84" r="11" fill="#E9E9F6"/>
<mask id="mask0" mask-type="alpha" maskUnits="userSpaceOnUse" x="43" y="73" width="22" height="22">
<circle cx="54" cy="84" r="11" fill="#E9E9F6"/>
</mask>
<g mask="url(#mask0)">
<path d="M58.7525 92.1843L52.9599 92.863L52.8177 88.9629L52.808 88.6944L52.7891 88.1814L57.5285 87.6259L57.8369 87.5901L58.0958 88.8903L58.7525 92.1843Z" fill="#F8BD8C"/>
<path d="M52.0687 91.5848C52.0687 91.5848 45.3171 94.398 45.1319 94.9606C44.9467 95.5233 44.1943 97.1166 44.1943 97.1166C44.1943 97.1166 47.4755 105.085 46.6316 107.804C45.7876 110.522 46.3508 115.022 46.3508 116.428C46.3508 117.834 45.7881 118.397 46.8193 118.771C47.8505 119.146 51.2253 118.959 53.0999 118.771C54.9745 118.584 58.8183 118.829 59.6623 118.988C60.5062 119.146 65.5679 118.302 65.5679 118.302C65.5679 118.302 66.2241 114.74 66.0364 112.959C65.8487 111.178 66.1039 106.96 66.0702 106.303C66.0364 105.647 66.3914 105.366 66.0732 103.773C65.7551 102.179 67.3489 93.4605 67.3489 93.4605L59.5681 90.6248L52.0687 91.5848Z" fill="#31185E"/>
<path d="M55.5945 91.2561L54.6211 94.5112L50.3379 92.3502L51.3762 91.2561H55.5945Z" fill="#2A1656"/>
<path d="M54.6671 94.6211L50.21 92.3705L51.3419 91.1777H55.6962L54.6671 94.6211ZM50.4631 92.3281L54.5724 94.4016L55.4901 91.3327H51.4079L50.4631 92.3281Z" fill="#1D1647"/>
<path d="M54.7568 91.2559L56.0698 94.511L60.9556 91.0707L59.7883 89.813L54.7568 91.2559Z" fill="#2A1656"/>
<path d="M56.0353 94.6297L54.6543 91.2058L59.8132 89.7266L61.0714 91.083L56.0353 94.6297ZM54.8589 91.305L56.1033 94.3918L60.8382 91.0575L59.7641 89.8989L54.8589 91.305Z" fill="#1D1647"/>
<path d="M47.5352 93.5752C47.5352 93.5752 50.419 94.6918 50.155 106.001L60.66 103.59L61.9479 108.912C61.9479 108.912 50.419 113.901 47.4267 113.818C44.4345 113.736 42.498 100.097 43.1144 98.6001C43.7307 97.1029 43.9 94.9716 47.4201 93.6386L47.5352 93.5752Z" fill="#31185E"/>
<path d="M64.8948 94.1625L63.1619 106.499L52.1547 105.018L50.8545 110.446C50.8545 110.446 65.7618 114.065 68.7054 113.077C71.649 112.09 70.2655 98.5214 69.486 96.7941C68.7065 95.0668 68.1786 93.7165 67.1393 93.3876C66.0999 93.0587 64.8923 94.1625 64.8923 94.1625H64.8948Z" fill="#31185E"/>
<path d="M58.0934 88.8903C57.8617 89.4217 57.4582 89.9133 56.8336 90.1393C55.4567 90.6345 53.734 89.6007 52.8154 88.9629L52.8057 88.6944C52.8849 88.7067 52.975 88.7179 53.0762 88.7261C53.6829 88.7773 54.5882 88.7604 55.7268 88.4755C56.5416 88.2709 57.1236 87.9425 57.5262 87.6259L57.8331 87.5901L58.0934 88.8903Z" fill="#EAB186"/>
<path d="M58.7667 82.5552C59.0193 85.7504 57.5094 88.4828 55.1632 88.6685C52.817 88.8541 50.7102 86.4143 50.4575 83.2191C50.2049 80.0238 51.902 77.2827 54.2482 77.0971C56.5944 76.9114 58.514 79.3599 58.7667 82.5552Z" fill="#F8BD8C"/>
<path d="M55.5606 89.5663C53.3142 89.8997 51.1107 87.5786 50.6406 84.3879C50.5956 84.0811 50.5695 83.7742 50.5547 83.4765C51.0795 86.5776 53.2466 88.8087 55.4517 88.4824C57.4767 88.1827 58.8413 85.8278 58.7436 83.0264C58.7554 83.0775 58.7625 83.1317 58.7702 83.1839C59.2423 86.373 57.8066 89.2302 55.5606 89.5663Z" fill="#1A1A1A"/>
<path d="M52.2248 75.4925C52.2248 75.4925 52.1982 77.8673 52.7874 78.211C53.3767 78.5547 54.0549 77.9297 54.592 77.8361C55.129 77.7425 56.2175 77.6484 56.9786 78.3133C57.7397 78.9782 58.3933 80.9112 58.3933 80.9112L58.5601 81.5597C58.5601 81.5597 59.0056 81.6717 59.0521 81.0626C59.0987 80.4534 58.9744 77.8985 59.0521 77.6484C59.1299 77.3983 59.0992 77.1487 58.8179 76.8673C58.5366 76.586 58.1775 76.1487 58.287 75.9605C58.3964 75.7722 58.8649 75.2889 58.4118 74.8669C57.9586 74.4449 55.7715 74.1795 55.3648 74.5544C54.9582 74.9293 53.4432 73.4925 52.2248 75.4925Z" fill="#1A1A1A"/>
<path d="M51.8106 75.6719C51.8106 75.6719 49.6782 75.9062 49.6332 77.7813C49.6332 77.7813 49.3774 78.2033 48.8598 78.8825C48.3422 79.5618 48.9534 80.7106 49.0941 81.3888C49.2347 82.067 49.5237 82.6307 49.5084 82.8338C49.493 83.0368 49.8828 83.4276 50.2347 83.2716C50.5866 83.1156 50.6643 82.6982 50.6643 82.6982C50.6643 82.6982 50.6955 80.0528 51.0863 79.5843C51.4771 79.1158 52.141 78.6549 52.5236 78.459C52.9062 78.2631 52.9926 77.8964 52.9926 77.8493C52.9926 77.8023 52.5083 75.2407 52.5083 75.2407L51.8106 75.6719Z" fill="#1A1A1A"/>
<path d="M51.3438 83.7047C51.6374 84.3088 51.5295 84.9665 51.1029 85.1742C50.6763 85.3819 50.0917 85.0601 49.7981 84.4581C49.5045 83.8561 49.6124 83.1963 50.039 82.9886C50.4656 82.781 51.0497 83.1006 51.3438 83.7047Z" fill="#F8BD8C"/>
<path d="M59.6212 82.8783C59.5445 83.5432 59.1 84.0424 58.6284 83.9882C58.1568 83.934 57.8371 83.3488 57.9123 82.6819C57.9875 82.0149 58.4335 81.5172 58.9051 81.5714C59.3767 81.6256 59.6979 82.2108 59.6212 82.8783Z" fill="#F8BD8C"/>
<path d="M53.1876 81.6699C52.8886 81.6883 52.5912 81.7276 52.2976 81.7875C52.0086 81.8484 51.7186 81.9348 51.5023 82.0694L51.4915 82.076C51.4374 82.1064 51.3737 82.1149 51.3134 82.0999C51.2532 82.0849 51.2009 82.0474 51.1674 81.9951C51.1339 81.9428 51.1216 81.8797 51.1331 81.8187C51.1446 81.7577 51.1789 81.7034 51.2291 81.6668C51.5427 81.4622 51.8644 81.3661 52.1836 81.2863C52.5024 81.2099 52.8263 81.1565 53.1528 81.1267C53.2247 81.1199 53.2964 81.142 53.352 81.188C53.4076 81.2341 53.4427 81.3003 53.4495 81.3722C53.4563 81.4441 53.4342 81.5158 53.3882 81.5714C53.3421 81.627 53.2759 81.6621 53.204 81.6689H53.1881L53.1876 81.6699Z" fill="#1A1A1A"/>
<path d="M52.9371 82.8301C52.9714 83.0629 52.8404 83.2751 52.644 83.3043C52.4476 83.3334 52.2604 83.1682 52.2262 82.9355C52.1919 82.7028 52.3228 82.49 52.5192 82.4608C52.7156 82.4317 52.9044 82.5974 52.9371 82.8301Z" fill="#1A1A1A"/>
<path d="M55.6613 81.3738C55.9567 81.324 56.2553 81.295 56.5548 81.2869C56.85 81.2802 57.1522 81.2992 57.3932 81.3805L57.4054 81.3846C57.4357 81.3952 57.4677 81.3998 57.4997 81.3981C57.5317 81.3963 57.563 81.3883 57.5919 81.3745C57.6208 81.3606 57.6467 81.3412 57.6681 81.3174C57.6895 81.2935 57.706 81.2657 57.7167 81.2355C57.7273 81.2052 57.7319 81.1732 57.7302 81.1412C57.7284 81.1092 57.7204 81.0779 57.7066 81.049C57.6927 81.0201 57.6733 80.9942 57.6495 80.9728C57.6256 80.9514 57.5978 80.9349 57.5676 80.9242C57.2157 80.7948 56.8806 80.7754 56.5518 80.7708C56.2239 80.7698 55.8964 80.792 55.5717 80.8373C55.5014 80.8483 55.4381 80.8865 55.3956 80.9437C55.3531 81.0008 55.3347 81.0724 55.3443 81.1429C55.3539 81.2135 55.3909 81.2775 55.4472 81.3212C55.5035 81.3648 55.5746 81.3846 55.6454 81.3764H55.6526L55.6613 81.3738Z" fill="#1A1A1A"/>
<path d="M56.1678 82.4476C56.1872 82.6824 56.3632 82.8568 56.5606 82.843C56.758 82.8292 56.9033 82.6236 56.8838 82.3888C56.8644 82.154 56.689 81.9796 56.491 81.9934C56.2931 82.0073 56.1483 82.2134 56.1678 82.4476Z" fill="#1A1A1A"/>
<path d="M53.4756 88.1049C53.5989 88.1888 54.028 88.0855 54.1666 88.0538C54.4029 88.0026 54.6735 87.9136 54.8213 87.7095C54.9911 87.4753 54.9124 87.1223 54.8914 86.8553C54.8852 86.7791 54.898 86.5684 54.8351 86.5055L55.4602 86.4114C55.4044 86.4201 55.5706 87.2927 55.5967 87.3638C55.6668 87.554 55.8581 87.6615 56.0463 87.709C56.2467 87.7547 56.453 87.7684 56.6576 87.7494C56.7087 87.7458 57.191 87.7044 57.1951 87.6538C57.1865 87.6963 57.1636 87.7346 57.1302 87.7622C56.809 88.0803 56.4705 88.3805 56.1164 88.6614C56.1164 88.6614 54.4602 88.8021 54.4131 88.755C54.3661 88.708 53.4776 88.1065 53.4756 88.1049Z" fill="#1A1A1A"/>
<path d="M56.5579 85.8041C56.3405 86.1902 55.8791 86.5125 55.2981 86.6224C54.5257 86.7723 53.8055 86.5099 53.5283 86.0225C53.5283 86.0153 53.5355 86.0076 53.5432 86C53.6383 85.919 53.7411 85.8474 53.85 85.7862L56.1185 85.5166C56.2955 85.5565 56.453 85.624 56.5579 85.8041Z" fill="#FCFCFC"/>
<path d="M53.3255 88.4143C53.2743 87.9417 53.1418 86.4297 53.3393 85.9796V85.9489L53.4068 85.8727C53.5152 85.7781 53.6332 85.695 53.7587 85.6247C54.1629 85.3984 54.6167 85.2754 55.0799 85.2666C55.3461 85.2542 55.613 85.2633 55.8778 85.2937L55.9412 85.3014C56.0143 85.3101 56.0865 85.3188 56.1581 85.3347C56.3397 85.373 56.5673 85.4508 56.7207 85.708C56.8742 85.974 56.9432 86.2615 57.0077 86.5397C57.0245 86.6113 57.0409 86.6829 57.0588 86.7535C57.1667 87.1862 57.2005 87.5525 57.1642 87.9064L56.7918 87.8681C56.8198 87.524 56.7871 87.1778 56.6951 86.8451C56.6767 86.7724 56.6593 86.6983 56.644 86.6241C56.5831 86.3617 56.5258 86.1126 56.398 85.8968C56.3366 85.7904 56.2481 85.7357 56.0824 85.7004C56.0225 85.6883 55.9621 85.6792 55.9013 85.6733L55.8358 85.6656C55.5912 85.6375 55.3447 85.6291 55.0988 85.6405C54.6958 85.6465 54.3004 85.7519 53.9479 85.9474C53.8551 85.9983 53.7674 86.0581 53.686 86.1259V86.13C53.5766 86.2968 53.6073 87.4246 53.7045 88.3724L53.3255 88.4143Z" fill="#1A1A1A"/>
<path d="M54.3966 84.4668C54.3852 84.4667 54.3742 84.4629 54.3653 84.4559C54.3563 84.4489 54.35 84.4391 54.3472 84.428C54.3445 84.417 54.3455 84.4054 54.3501 84.395C54.3546 84.3846 54.3626 84.376 54.3726 84.3706L54.7756 84.1563C54.8347 84.129 54.8839 84.084 54.9164 84.0276C54.949 83.9712 54.9632 83.9061 54.9572 83.8412L54.7526 82.4213C54.7507 82.4079 54.7542 82.3943 54.7624 82.3834C54.7705 82.3726 54.7826 82.3655 54.7961 82.3636C54.8094 82.3616 54.823 82.3651 54.8338 82.3731C54.8446 82.3812 54.8518 82.3932 54.8539 82.4065L55.0585 83.8269C55.0678 83.9126 55.0502 83.999 55.0081 84.0742C54.966 84.1493 54.9016 84.2095 54.8237 84.2463L54.4206 84.4612C54.4132 84.465 54.405 84.4669 54.3966 84.4668Z" fill="#1A1A1A"/>
</g>
<rect x="71" y="89" width="345" height="4" rx="2" fill="#E9E9F6"/>
<rect x="71" y="417" width="449" height="4" rx="2" fill="#E9E9F6"/>
<path d="M469.125 274.514C469.125 289.767 454.375 301.5 440.966 301.5C427.557 301.5 417.5 287.282 417.5 273.42C417.5 259.559 429.792 249.875 443.312 249.875C456.833 249.875 469.125 259.261 469.125 274.514Z" fill="#FFEAE6"/>
<path fill-rule="evenodd" clip-rule="evenodd" d="M472.1 245.5H439.9C439.127 245.5 438.5 246.129 438.5 246.905V276.403C438.5 277.179 439.127 277.808 439.9 277.808H472.1C472.873 277.808 473.5 277.179 473.5 276.403V246.905C473.5 246.129 472.873 245.5 472.1 245.5ZM471.05 275.349H440.95V257.44H471.05V275.349ZM440.95 254.982H471.05V247.958H440.95V254.982Z" fill="#535FD7"/>
<path d="M444.025 249.987H446.212C446.455 249.987 446.577 250.109 446.577 250.352V252.539C446.577 252.782 446.455 252.904 446.212 252.904H444.025C443.782 252.904 443.66 252.782 443.66 252.539V250.352C443.66 250.109 443.782 249.987 444.025 249.987Z" fill="#535FD7"/>
<path d="M449.634 249.987H451.822C452.065 249.987 452.186 250.109 452.186 250.352V252.539C452.186 252.782 452.065 252.904 451.822 252.904H449.634C449.391 252.904 449.27 252.782 449.27 252.539V250.352C449.27 250.109 449.391 249.987 449.634 249.987Z" fill="#535FD7"/>
<path d="M444.365 269.058H452.827C453.297 269.058 453.532 269.293 453.532 269.763V270.82C453.532 271.291 453.297 271.526 452.827 271.526H444.365C443.895 271.526 443.66 271.291 443.66 270.82V269.763C443.66 269.293 443.895 269.058 444.365 269.058Z" fill="#535FD7"/>
<path d="M444.365 264.346H452.827C453.297 264.346 453.532 264.581 453.532 265.051V266.109C453.532 266.579 453.297 266.814 452.827 266.814H444.365C443.895 266.814 443.66 266.579 443.66 266.109V265.051C443.66 264.581 443.895 264.346 444.365 264.346Z" fill="#535FD7"/>
<path d="M444.365 260.308H452.827C453.297 260.308 453.532 260.543 453.532 261.013V262.07C453.532 262.541 453.297 262.776 452.827 262.776H444.365C443.895 262.776 443.66 262.541 443.66 262.07V261.013C443.66 260.543 443.895 260.308 444.365 260.308V260.308Z" fill="#535FD7"/>
<path d="M317.125 274.514C317.125 289.767 302.375 301.5 288.966 301.5C275.557 301.5 265.5 287.282 265.5 273.42C265.5 259.559 277.792 249.875 291.312 249.875C304.833 249.875 317.125 259.261 317.125 274.514Z" fill="#E5E7FF"/>
<path fill-rule="evenodd" clip-rule="evenodd" d="M289.762 245.5H316.488C319.445 245.5 321.5 247.555 321.5 250.512V277.238C321.5 280.195 319.445 282.25 316.488 282.25H289.762C286.805 282.25 284.75 280.195 284.75 277.238V250.512C284.75 247.555 286.805 245.5 289.762 245.5ZM310.125 275.5C310.125 274.395 311.02 273.5 312.125 273.5H316.875C317.98 273.5 318.875 272.605 318.875 271.5V251.125C318.875 249.468 317.532 248.125 315.875 248.125H290.375C288.718 248.125 287.375 249.468 287.375 251.125V271.5C287.375 272.605 288.27 273.5 289.375 273.5H294.125C295.23 273.5 296.125 274.395 296.125 275.5V277.625C296.125 278.73 297.02 279.625 298.125 279.625H308.125C309.23 279.625 310.125 278.73 310.125 277.625V275.5Z" fill="#535FD7"/>
<path d="M308.646 262.914C309.219 262.269 308.761 261.25 307.898 261.25H305.75V255.375C305.75 254.27 304.855 253.375 303.75 253.375H302.5C301.395 253.375 300.5 254.27 300.5 255.375V261.25H298.352C297.489 261.25 297.031 262.269 297.604 262.914L303.125 269.125L308.646 262.914Z" fill="#535FD7"/>
<path d="M165 275.03C165 290.525 150.016 302.444 136.394 302.444C122.772 302.444 112.556 288 112.556 273.919C112.556 259.837 125.042 250 138.778 250C152.513 250 165 259.535 165 275.03Z" fill="#FFEBC4"/>
<mask id="path-66-inside-1" fill="white">
<path fill-rule="evenodd" clip-rule="evenodd" d="M152.852 264.95C158.351 264.95 162.808 260.608 162.808 255.253C162.808 249.897 158.351 245.556 152.852 245.556C147.354 245.556 142.897 249.897 142.897 255.253C142.897 260.608 147.354 264.95 152.852 264.95ZM152.852 281.111C162.016 281.111 169.445 278.217 169.445 274.647C169.445 271.076 162.016 268.182 152.852 268.182C143.689 268.182 136.26 271.076 136.26 274.647C136.26 278.217 143.689 281.111 152.852 281.111Z"/>
</mask>
<path d="M159.808 255.253C159.808 258.877 156.769 261.95 152.852 261.95V267.95C159.933 267.95 165.808 262.339 165.808 255.253H159.808ZM152.852 248.556C156.769 248.556 159.808 251.628 159.808 255.253H165.808C165.808 248.166 159.933 242.556 152.852 242.556V248.556ZM145.897 255.253C145.897 251.628 148.936 248.556 152.852 248.556V242.556C145.772 242.556 139.897 248.166 139.897 255.253H145.897ZM152.852 261.95C148.936 261.95 145.897 258.877 145.897 255.253H139.897C139.897 262.339 145.772 267.95 152.852 267.95V261.95ZM166.445 274.647C166.445 274.418 166.576 274.526 166.108 274.956C165.639 275.389 164.793 275.917 163.496 276.422C160.92 277.426 157.158 278.111 152.852 278.111V284.111C157.71 284.111 162.244 283.349 165.674 282.013C167.38 281.349 168.964 280.483 170.174 279.369C171.386 278.253 172.445 276.66 172.445 274.647H166.445ZM152.852 271.182C157.158 271.182 160.92 271.867 163.496 272.871C164.793 273.376 165.639 273.904 166.108 274.337C166.576 274.767 166.445 274.875 166.445 274.647H172.445C172.445 272.633 171.386 271.04 170.174 269.924C168.964 268.81 167.38 267.945 165.674 267.28C162.244 265.944 157.71 265.182 152.852 265.182V271.182ZM139.26 274.647C139.26 274.875 139.129 274.767 139.596 274.337C140.066 273.904 140.912 273.376 142.209 272.871C144.784 271.867 148.546 271.182 152.852 271.182V265.182C147.995 265.182 143.46 265.944 140.031 267.28C138.325 267.945 136.74 268.81 135.531 269.924C134.319 271.04 133.26 272.633 133.26 274.647H139.26ZM152.852 278.111C148.546 278.111 144.784 277.426 142.209 276.422C140.912 275.917 140.066 275.389 139.596 274.956C139.129 274.526 139.26 274.418 139.26 274.647H133.26C133.26 276.66 134.319 278.253 135.531 279.369C136.74 280.483 138.325 281.349 140.031 282.013C143.46 283.349 147.995 284.111 152.852 284.111V278.111Z" fill="#535FD7" mask="url(#path-66-inside-1)"/>
<circle cx="209" cy="214" r="12" fill="#F79E1B"/>
<circle cx="361" cy="214" r="12" fill="#33B760"/>
<circle cx="513" cy="214" r="12" fill="#FF7EB9"/>
<defs>
<filter id="filter0_d" x="32" y="123" width="524" height="33" filterUnits="userSpaceOnUse" color-interpolation-filters="sRGB">
<feFlood flood-opacity="0" result="BackgroundImageFix"/>
<feColorMatrix in="SourceAlpha" type="matrix" values="0 0 0 0 0 0 0 0 0 0 0 0 0 0 0 0 0 0 127 0"/>
<feOffset dy="1"/>
<feColorMatrix type="matrix" values="0 0 0 0 0.898039 0 0 0 0 0.901961 0 0 0 0 0.921569 0 0 0 1 0"/>
<feBlend mode="normal" in2="BackgroundImageFix" result="effect1_dropShadow"/>
<feBlend mode="normal" in="SourceGraphic" in2="effect1_dropShadow" result="shape"/>
</filter>
</defs>
</svg>
