<svg width="16" height="16" viewBox="0 0 16 16" fill="none" xmlns="http://www.w3.org/2000/svg">
<path fill-rule="evenodd" clip-rule="evenodd" d="M1.18067 0H14.8147C15.4667 0 16 0.516 16 1.15267V14.8473C16 15.4847 15.4667 16 14.8147 16H1.18067C0.528 16 0 15.4847 0 14.8473V1.15267C0 0.516 0.528 0 1.18067 0ZM2.58482 4.55223C2.84283 4.81048 3.19295 4.95551 3.558 4.95533C4.31794 4.9557 4.9343 4.33994 4.93467 3.58C4.93503 2.82006 4.31928 2.2037 3.55933 2.20333C2.79939 2.20297 2.18303 2.81872 2.18267 3.57867C2.18214 3.94371 2.32682 4.29398 2.58482 4.55223ZM11.262 13.6347H13.6313H13.632V9.444C13.632 7.38733 13.188 5.80733 10.7873 5.80733C9.632 5.80733 8.85867 6.44067 8.54067 7.04067H8.51V6H6.234V13.6347H8.60333V9.85667C8.60333 8.86067 8.792 7.89733 10.0273 7.89733C11.244 7.89733 11.262 9.03667 11.262 9.922V13.6347ZM2.37 13.6347V6H4.746V13.6347H2.37Z" fill="#8B8B8B"/>
</svg>
