<svg width="64" height="64" viewBox="0 0 64 64" fill="none" xmlns="http://www.w3.org/2000/svg">
<path d="M55.9997 32.1818C55.9997 47.1515 41.5235 58.6667 28.3633 58.6667C15.2031 58.6667 5.33301 44.7123 5.33301 31.108C5.33301 17.5038 17.3965 8 30.6663 8C43.9362 8 55.9997 17.2121 55.9997 32.1818Z" fill="#FFEBC4"/>
<path fill-rule="evenodd" clip-rule="evenodd" d="M57.3527 23.6691V24.6597C58.2156 25.3511 58.9917 26.4427 58.5277 28.0354C58.2633 28.9289 57.6216 29.6437 56.8021 30.0593C56.1604 30.5138 55.3626 30.7935 54.4998 30.7935C54.4753 30.7935 54.4521 30.7884 54.4293 30.7835C54.4077 30.7787 54.3865 30.7741 54.3653 30.7741C52.9692 36.2709 47.9396 40.0002 41.3622 40.0002C34.7804 40.0002 29.7552 36.2709 28.359 30.7935C27.6523 30.7935 27.0106 30.6148 26.4556 30.2963C25.3716 29.9389 24.4871 29.1464 24.1533 28.0548C23.7067 26.5864 24.305 25.557 25.0595 24.8617V23.6496C24.9684 19.124 26.4556 15.3365 29.378 12.6366C30.7741 11.3469 32.4564 10.3758 34.4075 9.69985C34.6937 7.2564 37.642 5.3335 41.2061 5.3335C44.7702 5.3335 47.6925 7.26029 48.0047 9.69985C49.9558 10.3758 51.6381 11.3469 53.0342 12.6366C55.9566 15.3365 57.4394 19.1434 57.3527 23.6691ZM43.2223 35.3114C47.6275 34.8763 51.1742 32.8524 53.3204 29.7563C53.4332 29.0843 53.4982 28.3889 53.4982 27.6547L53.5415 27.5731L53.4765 27.5149C51.8159 25.5686 49.3575 25.0947 46.7646 24.5975C46.6522 24.5754 46.5396 24.5534 46.4269 24.5314C45.2305 24.298 44.0161 24.0611 42.8234 23.6457C39.3244 22.4337 37.0437 20.0952 36.0465 18.8832C34.9625 20.5885 32.283 24.3022 29.3129 25.2734C29.2696 25.9882 29.2262 26.7418 29.2262 27.0215L29.2479 27.6547C29.2479 34.2625 34.2298 38.8852 41.3839 38.8852H41.4272C46.9858 38.8852 51.2609 36.0689 52.8565 31.6792C52.657 31.8967 52.4576 32.0949 52.2365 32.293C50.888 33.5244 49.2924 34.4956 47.4757 35.1521C46.1923 35.6105 44.8395 35.9251 43.4217 36.065C43.244 36.6438 42.4462 37.0789 41.4489 37.0789C40.3389 37.0789 39.4544 36.5234 39.4544 35.8669C39.4544 35.1909 40.3433 34.6549 41.4489 34.6549C42.225 34.6549 42.8884 34.9151 43.2223 35.3114Z" fill="#535FD7"/>
</svg>
