<svg width="18" height="14" viewBox="0 0 18 14" fill="none" xmlns="http://www.w3.org/2000/svg">
<path fill-rule="evenodd" clip-rule="evenodd" d="M18 1.65609C17.3405 1.93614 16.6262 2.13002 15.8795 2.21485C16.6431 1.77726 17.2252 1.08386 17.505 0.257165C16.7907 0.662435 16.0005 0.957299 15.154 1.11483C14.4846 0.430852 13.5228 0 12.4626 0C10.4251 0 8.7715 1.58338 8.7715 3.53433C8.7715 3.81304 8.80525 4.08098 8.86571 4.33949C5.7947 4.19138 3.07663 2.78707 1.25287 0.646278C0.933677 1.16734 0.752285 1.77726 0.752285 2.42489C0.752285 3.65013 1.40614 4.73399 2.39466 5.36411C1.79002 5.3493 1.22475 5.18638 0.725568 4.92248V4.96557C0.725568 6.67955 1.99953 8.10944 3.68549 8.43662C3.37755 8.51471 3.04851 8.55645 2.71385 8.55645C2.47762 8.55645 2.24701 8.53626 2.0164 8.49452C2.48887 9.89883 3.85001 10.9181 5.46567 10.9504C4.20155 11.8969 2.60839 12.4597 0.878838 12.4597C0.582142 12.4597 0.291071 12.4435 0 12.4126C1.63675 13.417 3.57581 14 5.66253 14C12.4514 14 16.165 8.61435 16.165 3.94499L16.1537 3.48721C16.8793 2.98769 17.505 2.36699 18 1.65609Z" fill="#8B8B8B"/>
</svg>
