<svg width="17" height="20" viewBox="0 0 17 20" fill="none" xmlns="http://www.w3.org/2000/svg">
<path fill-rule="evenodd" clip-rule="evenodd" d="M12.0233 0.0331806C11.996 0.0140888 11.9661 0.00320451 11.9361 0H11.8983C11.8435 0.00587842 11.7919 0.0373481 11.7595 0.0910538L10.8187 1.55949C10.1168 1.26704 9.32969 1.1019 8.50205 1.1019C7.67031 1.1019 6.88422 1.26704 6.18224 1.55949L5.24455 0.0910538C5.21284 0.0373481 5.16017 0.00587842 5.10422 0H5.06575C5.03525 0.00320451 5.00496 0.0140888 4.97767 0.0331806C4.8884 0.0910538 4.86345 0.214517 4.92056 0.301712L5.82503 1.72462C4.19477 2.53793 3.09091 4.0735 3.09091 5.8313C3.09091 5.93877 3.09909 6.0447 3.10739 6.15215L3.10739 6.15217L3.10752 6.15385H13.8935L13.8962 6.11453C13.9027 6.01992 13.9091 5.9262 13.9091 5.8313C13.9091 4.0735 12.8063 2.53793 11.1749 1.72462L12.0804 0.301712C12.1365 0.214517 12.1126 0.0910538 12.0233 0.0331806ZM3.09091 14.9879C3.09091 15.5835 3.57285 16.0639 4.16566 16.0639H5.3125V18.8266C5.3125 19.4743 5.83522 20 6.48125 20H6.52935C7.17545 20 7.69817 19.4705 7.69817 18.8266V16.0639H9.3029V18.8266C9.3029 19.4743 9.82981 20 10.4707 20H10.5198C11.1649 20 11.6876 19.4705 11.6876 18.8266V16.0639H12.8355C13.423 16.0639 13.9091 15.5835 13.9091 14.9879V6.92308H3.09091V14.9879ZM0 13.8775V8.42983C0.157013 8.00257 0.591572 7.69231 1.10321 7.69231H1.15231C1.79211 7.69231 2.31818 8.18386 2.31818 8.78156V13.5254C2.31818 14.1238 1.7963 14.6154 1.15231 14.6154H1.10321C0.591572 14.6154 0.157013 14.3051 0 13.8775ZM14.6818 13.8775V8.42983C14.8388 8.00257 15.2734 7.69231 15.785 7.69231H15.8341C16.4739 7.69231 17 8.18386 17 8.78156V13.5254C17 14.1238 16.4781 14.6154 15.8341 14.6154H15.785C15.2734 14.6154 14.8388 14.3051 14.6818 13.8775ZM5.99947 4.26795C6.28713 4.26795 6.51867 4.03183 6.51867 3.73938C6.51867 3.44538 6.28713 3.21543 5.99947 3.21543C5.71188 3.21543 5.48026 3.44538 5.48026 3.73938C5.48026 4.03183 5.71188 4.26795 5.99947 4.26795ZM11.5197 3.73938C11.5197 4.03183 11.2892 4.26795 11.0005 4.26795C10.7128 4.26795 10.4813 4.03183 10.4813 3.73938C10.4813 3.44538 10.7128 3.21543 11.0005 3.21543C11.2892 3.21543 11.5197 3.44538 11.5197 3.73938Z" fill="#535FD7"/>
</svg>
