<svg width="92" height="23" viewBox="0 0 92 23" fill="none" xmlns="http://www.w3.org/2000/svg">
<path d="M57.1417 19C58.5919 19 59.833 18.8083 60.8652 18.425C61.8973 18.0417 62.6778 17.5125 63.2067 16.8375C63.7356 16.1625 64 15.4 64 14.55C64 13.5167 63.7228 12.7125 63.1683 12.1375C62.6138 11.5625 61.9613 11.1667 61.2106 10.95C60.46 10.7333 59.5131 10.5417 58.3701 10.375C57.4659 10.2417 56.8176 10.1125 56.4252 9.9875C56.0328 9.8625 55.8366 9.64167 55.8366 9.325C55.8366 9.04167 56.0157 8.8125 56.374 8.6375C56.7323 8.4625 57.2953 8.375 58.063 8.375C59.4961 8.375 60.8268 8.70833 62.0551 9.375L63.5138 6.15C62.8484 5.78333 62.021 5.5 61.0315 5.3C60.042 5.1 59.044 5 58.0374 5C56.6214 5 55.4058 5.19583 54.3907 5.5875C53.3757 5.97917 52.6037 6.5125 52.0748 7.1875C51.5459 7.8625 51.2815 8.63333 51.2815 9.5C51.2815 10.55 51.563 11.3667 52.126 11.95C52.689 12.5333 53.3586 12.9333 54.1348 13.15C54.9111 13.3667 55.8537 13.5417 56.9626 13.675C57.8327 13.7917 58.4682 13.9125 58.8691 14.0375C59.27 14.1625 59.4705 14.375 59.4705 14.675C59.4705 14.975 59.3041 15.2042 58.9715 15.3625C58.6388 15.5208 58.0801 15.6 57.2953 15.6C56.4423 15.6 55.5807 15.4875 54.7106 15.2625C53.8406 15.0375 53.0899 14.7333 52.4587 14.35L51 17.6C51.6824 18.0167 52.5866 18.3542 53.7126 18.6125C54.8386 18.8708 55.9816 19 57.1417 19Z" fill="#535FD7"/>
<path d="M7.31405 19C8.96694 19 10.3719 18.7347 11.5289 18.204C12.686 17.6733 13.5537 16.9643 14.1322 16.0769C14.7107 15.1896 15 14.1978 15 13.1016C15 11.8315 14.6818 10.8267 14.0455 10.0872C13.4091 9.34776 12.657 8.80838 11.7893 8.46909C10.9215 8.12981 9.82645 7.81227 8.50413 7.51648C7.33058 7.25549 6.47934 7.00321 5.95041 6.75962C5.42149 6.51603 5.15702 6.15064 5.15702 5.66346C5.15702 5.17628 5.38017 4.78045 5.82645 4.47596C6.27273 4.17147 6.98347 4.01923 7.95868 4.01923C9.5124 4.01923 11.1157 4.48901 12.7686 5.42857L14.281 1.59203C13.438 1.07005 12.4628 0.674222 11.3554 0.404533C10.2479 0.134844 9.12397 0 7.98347 0C6.31405 0 4.90496 0.260989 3.7562 0.782967C2.60744 1.30494 1.7438 2.01397 1.16529 2.91003C0.586777 3.80609 0.297521 4.8109 0.297521 5.92445C0.297521 7.1946 0.61157 8.20375 1.23967 8.95192C1.86777 9.70009 2.61983 10.2438 3.49587 10.5831C4.3719 10.9224 5.46281 11.2399 6.7686 11.5357C7.95868 11.8141 8.82231 12.0794 9.3595 12.3317C9.89669 12.584 10.1653 12.9712 10.1653 13.4931C10.1653 14.4849 9.22314 14.9808 7.33884 14.9808C6.34711 14.9808 5.33884 14.8155 4.31405 14.4849C3.28926 14.1543 2.38843 13.7193 1.61157 13.1799L0 16.9904C0.826446 17.5994 1.90083 18.0865 3.22314 18.4519C4.54545 18.8173 5.90909 19 7.31405 19Z" fill="#FF5A00"/>
<path fill-rule="evenodd" clip-rule="evenodd" d="M34.6211 8.62466V18.6653H30.3911V8.62466H28.998V5.14905H30.3911V4.76287C30.3911 1.21003 32.8734 0 35.6595 0C36.057 0 36.3297 0.0158472 36.6612 0.0351085L36.6612 0.0351109C36.7522 0.0403992 36.8477 0.0459449 36.9513 0.0514905V3.65583C36.7994 3.63008 36.5714 3.60434 36.2674 3.60434C35.1783 3.60434 34.6211 4.04201 34.6211 4.86585V5.14905H36.698V8.62466H34.6211ZM20.9392 19C22.3069 19 23.2694 18.6138 23.9533 17.9187L24.1813 18.6653H27.9553V10.2981C27.9553 7.20867 26.7902 4.81436 22.2056 4.81436C20.002 4.81436 18.2036 5.53523 16.7852 6.4878L18.3556 9.37127C19.3941 8.85637 20.5339 8.52168 21.699 8.52168C23.0668 8.52168 23.7254 9.16531 23.7254 9.98916V10.4783C23.2441 10.2724 22.3323 9.98916 21.1671 9.98916C18.0263 9.98916 16 11.7656 16 14.4688C16 17.4038 18.3303 19 20.9392 19ZM21.5006 15.7046C20.5128 15.7046 19.7023 15.2154 19.7023 14.3144C19.7023 13.439 20.4621 12.8726 21.4753 12.8726C22.4885 12.8726 23.2737 13.3875 23.2737 14.3144C23.2737 15.2154 22.5138 15.7046 21.5006 15.7046ZM43.997 19C47.4418 19 49.2655 16.8117 49.6454 16.0135L46.8592 13.8252C46.6059 14.2114 45.6687 15.2669 44.073 15.2669C42.5026 15.2669 41.3628 14.2371 41.2615 13.0271H49.9747C50 12.7182 50 12.435 50 12.1775C50 7.56911 47.6951 4.81436 43.4651 4.81436C39.5644 4.81436 36.9302 7.98103 36.9302 11.9458C36.9302 15.9363 39.6151 19 43.997 19ZM44.0688 8.28997C42.6757 8.28997 42.0171 9.34553 41.9158 10.2981H46.2218C46.1711 9.2168 45.3859 8.28997 44.0688 8.28997Z" fill="#FF5A00"/>
<path fill-rule="evenodd" clip-rule="evenodd" d="M69.2398 23V17.6741C69.519 18.0049 70.763 19.0229 72.7941 19.0229C76.653 19.0229 79.0903 16.1471 79.0903 11.9987C79.0903 7.90129 76.3992 5 72.5656 5C70.6107 5 69.3413 5.94165 68.9605 6.3743V5.33085H65V23H69.2398ZM71.9817 15.2818C70.3061 15.2818 69.1128 14.0856 69.1128 11.9733C69.1128 10.1918 70.1537 8.71569 71.9817 8.71569C73.6827 8.71569 74.8505 9.98819 74.8505 11.9733C74.8505 13.9329 73.708 15.2818 71.9817 15.2818ZM92 5.33085L85.3992 23H81.3879L83.1904 18.2594L78.2144 5.33085H82.7588L85.1199 13.0167L87.5825 5.33085H92Z" fill="#535FD7"/>
</svg>
