<svg width="16" height="20" viewBox="0 0 16 20" fill="none" xmlns="http://www.w3.org/2000/svg">
<path fill-rule="evenodd" clip-rule="evenodd" d="M11.1293 0H11.1385C11.2156 0.00228773 11.2825 0.0614954 11.291 0.1392C11.4054 1.1808 11.0277 2.3432 10.2809 3.2496C9.57152 4.1072 8.53272 4.64 7.5696 4.64C7.50216 4.64 7.43408 4.6368 7.3676 4.632C7.294 4.6264 7.23456 4.5696 7.22512 4.4968C7.0704 3.328 7.6568 2.1696 8.25696 1.4736C8.9632 0.6472 10.1445 0.0408 11.1293 0ZM0 10.9014V10.3244C0.0360083 9.23134 0.281573 8.18429 0.79888 7.2864C1.64616 5.8128 3.18312 4.8824 4.8096 4.8584H4.85872C5.55832 4.8584 6.21912 5.12 6.80176 5.352C7.23776 5.5248 7.61424 5.6736 7.9044 5.6736C8.16248 5.6736 8.5368 5.5264 8.97032 5.3552L8.97281 5.35422C9.6003 5.10719 10.3806 4.8 11.1954 4.8C11.2997 4.8 11.4037 4.8048 11.5047 4.8152C12.1991 4.8448 13.9244 5.0928 15.0498 6.74C15.0737 6.7752 15.0825 6.8176 15.0739 6.8592C15.0657 6.9008 15.041 6.9368 15.0056 6.9592L14.9903 6.9688C14.6633 7.1712 13.0326 8.288 13.0536 10.3952C13.0759 12.9904 15.2219 13.9424 15.4666 14.0424C15.468 14.0424 15.473 14.0444 15.476 14.0457C15.4768 14.046 15.4774 14.0462 15.4778 14.0464C15.5342 14.0725 15.5683 14.1278 15.569 14.1868V14.1905C15.5688 14.2064 15.5662 14.2226 15.5609 14.2384L15.5554 14.2552C15.4226 14.6808 15.0287 15.7952 14.2435 16.9424C13.4911 18.0416 12.6382 19.2872 11.249 19.3136C10.6031 19.3255 10.1646 19.1363 9.74014 18.9532L9.73376 18.9504C9.3008 18.7624 8.8532 18.5688 8.15184 18.5688C7.4144 18.5688 6.94432 18.7688 6.49 18.9632L6.48792 18.9641C6.08377 19.1358 5.66525 19.3136 5.08688 19.3368L5.0854 19.3369C5.06216 19.3376 5.03944 19.3384 5.01672 19.3384C3.78328 19.3384 2.88296 18.184 1.9936 16.8976C0.884271 15.2955 0.0685954 13.0459 0 10.9014Z" fill="#535FD7"/>
<mask id="mask0" mask-type="alpha" maskUnits="userSpaceOnUse" x="0" y="0" width="16" height="20">
<path fill-rule="evenodd" clip-rule="evenodd" d="M11.1293 0H11.1385C11.2156 0.00228773 11.2825 0.0614954 11.291 0.1392C11.4054 1.1808 11.0277 2.3432 10.2809 3.2496C9.57152 4.1072 8.53272 4.64 7.5696 4.64C7.50216 4.64 7.43408 4.6368 7.3676 4.632C7.294 4.6264 7.23456 4.5696 7.22512 4.4968C7.0704 3.328 7.6568 2.1696 8.25696 1.4736C8.9632 0.6472 10.1445 0.0408 11.1293 0ZM0 10.9014V10.3244C0.0360083 9.23134 0.281573 8.18429 0.79888 7.2864C1.64616 5.8128 3.18312 4.8824 4.8096 4.8584H4.85872C5.55832 4.8584 6.21912 5.12 6.80176 5.352C7.23776 5.5248 7.61424 5.6736 7.9044 5.6736C8.16248 5.6736 8.5368 5.5264 8.97032 5.3552L8.97281 5.35422C9.6003 5.10719 10.3806 4.8 11.1954 4.8C11.2997 4.8 11.4037 4.8048 11.5047 4.8152C12.1991 4.8448 13.9244 5.0928 15.0498 6.74C15.0737 6.7752 15.0825 6.8176 15.0739 6.8592C15.0657 6.9008 15.041 6.9368 15.0056 6.9592L14.9903 6.9688C14.6633 7.1712 13.0326 8.288 13.0536 10.3952C13.0759 12.9904 15.2219 13.9424 15.4666 14.0424C15.468 14.0424 15.473 14.0444 15.476 14.0457C15.4768 14.046 15.4774 14.0462 15.4778 14.0464C15.5342 14.0725 15.5683 14.1278 15.569 14.1868V14.1905C15.5688 14.2064 15.5662 14.2226 15.5609 14.2384L15.5554 14.2552C15.4226 14.6808 15.0287 15.7952 14.2435 16.9424C13.4911 18.0416 12.6382 19.2872 11.249 19.3136C10.6031 19.3255 10.1646 19.1363 9.74014 18.9532L9.73376 18.9504C9.3008 18.7624 8.8532 18.5688 8.15184 18.5688C7.4144 18.5688 6.94432 18.7688 6.49 18.9632L6.48792 18.9641C6.08377 19.1358 5.66525 19.3136 5.08688 19.3368L5.0854 19.3369C5.06216 19.3376 5.03944 19.3384 5.01672 19.3384C3.78328 19.3384 2.88296 18.184 1.9936 16.8976C0.884271 15.2955 0.0685954 13.0459 0 10.9014Z" fill="white"/>
</mask>
<g mask="url(#mask0)">
</g>
</svg>
