<?xml version="1.0" encoding="utf-8"?><svg xmlns="http://www.w3.org/2000/svg" xmlns:xlink="http://www.w3.org/1999/xlink"><symbol viewBox="0 0 68 43" id="icon-american-express" xmlns="http://www.w3.org/2000/svg"><g fill="none" fill-rule="evenodd"><rect fill="#F9F9F9" width="67.7" height="42.7" rx="2.2"/><path d="M21 20.3v-.6l-.3.6H18l-.5-.7v.7h-5.2l-.6-1.4h-1l-.7 1.3H7.3V16l2-4.7H13l.6 1.3v-1.3h4.7l1 2.2 1-2.2H35c.4 0 1 .2 1.3.4v-.4H40v.5c.5-.3 1-.5 1.6-.5h6.6l.6 1.4v-1.4h4l1 1.4v-1.4h4v9h-4.2l-1-1.5v1.5h-5l-.8-1.6h-1l-.7 1.6h-3c-.7 0-1.4-.2-2-.6v.6h-6.2v-2c0-.4-.2-.3-.2-.3h-.2v2.3H21zm-3 2h8l1.2 1.3 1.2-1.3h6.2c.4 0 .8 0 1.2.3v-.3h5.5c.5 0 1 0 1.3.4v-.4h7v.3l1.3-.3h4.6v.3l1.2-.3h3.6v8.5c-.4.4-1 .6-1.4.6h-4.8V31c-.4.3-.8.4-1.2.4H40.2v-2.2c0-.2 0-.3-.3-.3h-.2v2.4h-4V29H33v2.3h-4.8l-1-1.4-1.3 1.3h-8v-9z" fill="#FFF"/><path fill="#0078A9" d="M43.5 23.6h5V25H45v1.2h3.5v1.2H45v1.3h3.6V30h-5m14.8-4c2 .2 2 1.2 2 2.2 0 .5-.2 1-.6 1.4-.3.3-.8.5-1.3.5h-3.3v-1.3h2.5c.5 0 1 0 1-.6 0-.2 0-.4-.4-.5h-1c-2 0-2.3-1-2.3-2 0-.5.2-1 .6-1.3.3-.4.8-.6 1.3-.6H60V25h-2.5c-.5 0-1 0-1 .6 0 .4.2.5.6.5h1zm-5.9 0c2 .2 2 1.2 2 2.2 0 .5 0 1-.5 1.4-.4.3-1 .5-1.4.5h-3.3v-1.3H52c.3 0 1 0 1-.6 0-.2-.2-.4-.6-.5h-1c-1.8 0-2.2-1-2.2-2 0-.5 0-1 .5-1.3.3-.4.8-.6 1.3-.6h3.3V25H52c-.6 0-1.2 0-1.2.6 0 .4.3.5.6.5h1zM34 23.7h-5.4l-1.8 2-1.7-2h-6V30h6l1.8-2 1.8 2h3v-2h2c1 0 2.4-.2 2.4-2.4 0-.5-.2-1-.5-1.4-.4-.4-1-.6-1.4-.5zm-10 5h-3.5v-1.3H24v-1.2h-3.5V25h3.8l1.5 1.8-1.7 2zm6 .7l-2.2-2.6 2.2-2.5v5zm3.5-2.8h-2V25h2c.4 0 .6 0 .8.4.2.2.2.6 0 .8-.2.3-.4.4-.7.4zm8.1.4c.7 0 1-1 1-1.6 0-1.4-1-1.7-1.8-1.7h-4V30h1.5v-2h2c.6 0 .8.5.8 1l.2 1.3h1.5V29c0-1-.4-1.5-1-1.6zm-1.4-.5h-2V25h2c.3 0 .5 0 .7.2v.6c0 .4 0 .7-.8.7zm-2.8-13.9H39V19h-1.6zm-12.8 0h5V14h-3.4v1.2h3.4v1.2h-3.4v1.3h3.5V19h-5m10.8-3c.7-.2 1-1 1-1.7 0-1.3-1-1.7-1.8-1.7h-4V19H32v-2.2h2c.6 0 .8.5.8 1V19h1.6v-1.3c0-1-.4-1.5-1-1.6zm-1.4-.6h-1.8V14h2c.2 0 .4 0 .5.2.2 0 .3.3.3.5 0 .5-.2.7-1 .7zM21 12.6L19 17l-1.7-4.4h-2.5v6.2L12 12.6h-2L7.3 19H9l.5-1.4h3l.7 1.4h3v-4.7l2.2 4.7h1.4l2-4.7V19h1.7v-6.4H21zm-11 3.6l1-2.2 1 2.2h-2zm45-3.6V17l-2.7-4.4H50v6l-2.6-6h-2l-2.2 5h-1c-.4 0-1-.4-1-1.5v-.4c0-1.5.8-1.6 2-1.6h.8v-1.4h-2c-.7 0-2.2.6-2.3 3.2 0 1.8.7 3.2 2.5 3.2h2l.6-1.4h3l.8 1.4h3v-4.7l2.8 4.7h2.2v-6.4H55zm-9.6 3.6l1-2.2 1 2.2h-2z"/></g></symbol><symbol viewBox="0 0 68 43" id="icon-direct-debit" xmlns="http://www.w3.org/2000/svg"><g fill="none" fill-rule="evenodd"><rect fill="#F9F9F9" width="67.7" height="42.7" rx="2.2"/><path d="M32.6 17.5h2.2s2 0 2 2c0 1.3-2 1.5-2 1.5h-2.2v-3.5zm6.3 6.8c0 .3.2.6 1 .7.3 0 .8 0 1.2-.4v.7l-1.4.2c-.5 0-2 0-2-1.4 0-1 1.3-1.3 2-1.3 1 0 1.7.4 1.7 1.7H39zm0-.5h1.6s0-.6-.8-.6c-.4 0-.8.2-1 .6zm5-.7c.4-.2 1-.4 1.3-.3.4 0 .8 0 1 .4.4.3.5.7.5 1 0 .4 0 1.5-1.6 1.5-.4 0-.8 0-1-.4v.4H43v-3.8h1v1.6zm1 2c.4 0 .8-.4.8-1 0-.2 0-.7-1-.7-.3 0-.7.3-.8.7v.3c0 .4.5.7 1 .6zm8.8-.2v.6H53c-.3 0-1 0-1-1v-1h-1v-.7h1V22h1v.7h.8v.6h-1v1s0 .6.6.6c.4 0 .4-.2.4-.2zM50.6 18h1.2v3h1v-3h1.3v-.5h-3.4v.6zm-.4.2v-.6c-.3-.2-.8-.2-1.3-.2-1 0-2.5.5-2.5 2 0 1.2 1.6 1.7 2.5 1.7h1.3v-.7H49c-.7 0-1.4-.5-1.4-1 .2-.8.8-1.3 1.5-1.3.5 0 1 0 1.2.2zm-9.3-.7s1.6 0 1.6 1c0 .8-1 .8-1 .8.2 0 .3 0 .4.3.2 0 .8 1.4.8 1.4h-1l-.2-.3c0-.2-.3-.5-.3-.5 0-.3-.3-.5-.7-.5h-.3V21h-1v-3.5H41zm-.7 1.6h.5s.8 0 .8-.5c0-.4-.7-.5-.7-.5h-.7v1zm4.2.6h1.7V19h-1.7v-.8h1.8v-.7h-3V21h3v-.6h-1.8v-.8zm4 2.7h1v-.7h-1v.7zm0 3h1v-2.6h-1v2.7zm-11-4.4h1v-3.5h-1V21zm-4.7 1h2s2.2 0 2.2 1.8c0 1.4-2 1.6-2 1.6h-2.2V22zm1 2.7h.7s1.4 0 1.4-1c0-1.2-1.4-1.3-1.4-1.3h-.6v2.3zm0-4.4h.7s1.4 0 1.4-1c0-1.2-1.4-1.3-1.4-1.3h-.6v2.3zm-10.5-.7v7s-4-.7-4-3.5c0-2 3-3.2 4-3.4zm0 0c-2.4-.3-8 .8-8 3.4 0 1.6 3 4 7.7 4 0 0 5.6 0 5.5-6 0-5-3.8-5.8-5-6v-.3c4.7.3 8.4 3.2 8.4 6.6 0 3.7-4.2 6.6-9.3 6.6-5 0-9-3-9-6.7 0-3.6 4-6.6 9-6.6h.5v4.7z" fill="#231F20"/></g></symbol><symbol viewBox="0 0 68 43" id="icon-discover" xmlns="http://www.w3.org/2000/svg"><g fill="none" fill-rule="evenodd"><rect fill="#F9F9F9" width="67.7" height="42.7" rx="2.2"/><path d="M18.6 42.7h46.8c1.3 0 2.3-1 2.3-2.3v-16c-4.5 3-21.4 12.8-49 18.3z" fill="#F58220"/><path d="M34.7 18c-2 0-3.4 1.4-3.4 3.3 0 1.4.7 2.6 2 3.2 1.2.6 2.7.3 3.7-.6 1-1 1.3-2.6.8-4-.5-1-1.7-2-3-2z" fill="#f09838"/><path d="M15.5 18h-1.8v6.5h1.8c.8 0 1.6-.2 2.3-.7.7-.6 1-1.5 1-2.5 0-2-1.3-3.2-3.3-3.2zm1.4 5c-.5.3-1 .5-1.8.4H15v-4.2h.2c.7 0 1.3 0 1.7.5.4.4.6 1 .6 1.6 0 .6-.2 1.2-.7 1.6zm2.6-5h1.2v6.5h-1.2zm4.2 2.6c-.7-.3-1-.5-1-.8 0-.4.5-.7 1-.7.4 0 .8.3 1 .6l.7-1c-.6-.3-1.2-.6-2-.6-.4 0-1 .2-1.3.5-.3.4-.5.8-.5 1.4 0 .7.4 1.2 1.6 1.6.4 0 .7.2 1 .4.2 0 .3.4.3.6 0 .3 0 .5-.3.7-.2.2-.4.2-.7.2-.6 0-1-.3-1.3-.8l-.8.8c.4.7 1.3 1.2 2.2 1.2.5 0 1-.2 1.5-.6.3-.3.5-1 .5-1.4 0-1-.4-1.5-1.8-2zm2.3.7c0 1 .3 1.8 1 2.4.5.6 1.4 1 2.3 1 .5 0 1-.2 1.5-.4v-1.5c-.3.5-1 .7-1.5.7s-1-.2-1.5-.6c-.4-.5-.6-1-.6-1.7 0-.5.2-1 .6-1.5.4-.4 1-.6 1.5-.6.6 0 1 .2 1.5.7v-1.6c-.4-.3-1-.4-1.5-.4-1 0-1.7.3-2.4 1-.7.6-1 1.4-1 2.3zm14.8 1.1L39 18h-1l2.7 6.7h.7L44 18h-1.5m1.9 6.5H48v-1h-2.3v-1.8H48v-1h-2.3V19H48v-1h-3.6m8.4 2c0-1.2-.8-2-2.2-2h-1.8v6.5H50V22h.2l1.7 2.5h1.4l-2-2.7c1 0 1.5-1 1.4-1.8zm-2.4 1H50v-2h.4c.8 0 1.2.5 1.2 1 0 .7-.4 1-1.2 1z" fill="#001722"/><path d="M53.7 18.6s0-.2-.2-.2h-.2v.6h.2v-.2.2h.3l-.2-.3zm-.2 0z" fill="#231F20"/><path d="M53.5 18.2c-.2 0-.3 0-.4.3 0 .2 0 .4.2.6 0 .2.3.2.5.2s.3-.3.3-.5c0-.3-.2-.5-.5-.5zm0 1l-.3-.3v-.6h.5s.2 0 .2.3c0 .2-.3.4-.5.4z" fill="#231F20"/></g></symbol><symbol viewBox="0 0 68 43" id="icon-jcb" xmlns="http://www.w3.org/2000/svg"><g fill="none" fill-rule="evenodd"><rect fill="#F9F9F9" width="67.7" height="42.7" rx="2.2"/><path d="M45.6 22.8c0 2.5.2 5 0 7.6 0 1-.6 2-1.5 2.5-.7.3-1.6.5-2.4.4h-3.3v-21c.2-1.5 1.2-2.7 2.5-3l4.8-.3v14z" fill="#00A551"/><path d="M22 22V12c.2-1 1-2 2-2.5 1.7-.5 3.6-.2 5.2-.3v18c0 2 .7 4.7-1.8 6-1.6.6-3.7 0-5.4.3V22z" fill="#0071BB"/><path d="M22 22.4c.6 1 1.6 1.5 2.6 1.6 1.4 0 3.2.2 4-1 .7-.7.3-1.6.4-2.5V19c-.8-.2-1.5 0-2.4 0-.5 1.6.7 3.5-1.2 4.4-.5 0-1 0-1.6-.3-.7 0-.3-1.3-1.3-1H22v.4z" fill="#FFF"/><path d="M37.4 10.6v20.2c-.2 1-1 2-2 2.3-1.5.7-3.5.4-5.2.4V12.2c0-1 .7-2 1.6-2.4.6-.4 1.4-.6 2-.6h3.6v1.4z" fill="#EC1C24"/><path d="M37 19c.2.2.2.4.2.7-1.3-.4-2.8-.7-4 .2-.4.4-.6 1-.5 1.8.2.6.6 1.2 1.3 1.5 1 .3 2 0 3-.2.2.3.2.5 0 .7h-4.6c-.8 0-1.5-.6-2-1.4-.2-1 0-1.8.5-2.5.4-.6 1.2-1 2-1h4zm8.6 3.8c0 .5-.5 1-1 1h-6v-5h3.7c1 .2 2.4-.3 3 .8 0 .4 0 .8-.3 1.2 0 .2-.4.3-.5.5.5 0 1 .5 1 1v.5zm-5-3.4V21c1 0 2 .2 2.6-.4.2-.3 0-.6 0-1-.7-.5-1.7 0-2.5-.2zm2.3 2.3h-2.4v1.6c1 0 1.8 0 2.6-.2.2 0 .3-.5.2-.8 0-.2-.2-.4-.5-.5z" fill="#FFF"/></g></symbol><symbol viewBox="0 0 68 43" id="icon-mastercard" xmlns="http://www.w3.org/2000/svg"><g fill="none" fill-rule="evenodd"><rect width="67.7" height="42.7" fill="#F9F9F9" rx="2.2"/><path fill="#FBB231" d="M42 33.6h1.2l.6-.2h.6l.6-.2.6-.2.6-.2.5-.2.5-.2.6-.3.5-.2.5-.3.5-.4.4-.2.5-.4.4-.4.4-.4.4-.5.3-.3.4-.5.4-.5.3-.5.2-.6.2-.5.2-.5.2-.5.2-.6v-.6l.2-.6V19l-.2-.7-.2-.6-.2-.6-.2-.4-.3-.6-.3-.5-.3-.5-.3-.5-.3-.5-.3-.5-.4-.4-.4-.3-.4-.4-.5-.4-.4-.5-.5-.3-.5-.3-.5-.4-.6-.3-.5-.3-.5-.2-.6-.2H45l-.6-.3h-.6l-.6-.2h-2.5l-.6.2h-.5l-.6.3h-.6l-.6.3-.6.2-.5.3-.5.3-.5.3-.5.2-.5.3-.4.4-.5.3-.4.4-.4.4-.4.5-.3.5-.4.5-.4.5-.3.5-.3.5-.2.6-.2.5-.2.7-.2.6v.6l-.2.5v1.3l-.2.6v1.2l.2.6v.6l.2.6.2.6.2.5.2.6.2.6.3.6.3.5.3.5.3.5.3.4.4.6.4.4.4.4.5.4.4.3.5.5.5.3.5.3.5.4.5.2.6.2.6.2.5.2h.5l.6.2h.7l.6.2h.7"/><path fill="#EC1C2E" d="M25.7 33.6H27l.6-.2h.6l.6-.2.5-.2.6-.2.4-.2.6-.2.5-.3.5-.2.5-.3.5-.4.4-.2.5-.4.3-.4.4-.4.4-.5.4-.3.4-.5.3-.5.4-.5.2-.6.3-.5v-.5l.3-.5.2-.6v-.6l.2-.6V19l-.2-.7-.2-.6-.2-.6v-.4l-.4-.6-.2-.5-.3-.5-.2-.5-.4-.5-.3-.5-.3-.4-.4-.3-.4-.4-.6-.4-.4-.5-.5-.3-.5-.3-.5-.4-.5-.3-.6-.3-.5-.2-.7-.2h-.5l-.6-.3h-.6L27 9h-2.4l-.6.2h-.7l-.6.3H22l-.5.3-.5.2-.6.3-.5.3-.6.3-.5.2-.6.3-.4.4-.5.3-.4.4-.3.4-.4.5-.3.5-.4.5-.3.5-.3.5-.2.5-.3.6-.2.5-.2.7v.6l-.2.6v.5l-.2.6v3.1l.2.6v.6l.3.6.3.5.2.6.3.6.2.6.3.5.3.5.4.5.3.4.4.6.4.4.5.4.5.4.4.3.5.5.4.3.5.3.4.4.6.2.5.2.6.2.7.2h.6l.6.2h.5l.6.2h.7"/><path fill="#FBB231" d="M32.4 13.8H39V13h-6l-.6.8m-.9 1.5H39v-.7h-7.2l-.3.7m-.8 1.4H39V16h-8l-.3.7m-.5 1.5H39v-.6h-8.6l-.2.6m.3 7.2H39v-.7h-8.7l.2.7m.5 1.4h8v-.6h-8.2l.3.6m.9 1.5h7v-.6h-7.4l.4.6m1.2 1.5H39V29h-6.4l.6.8M30 19.7h9V19h-9v.7m5.4 4.3h3.4v-1h-3.3v.7m.2-1.3h3v-.7h-3v.7m-6-.7h1v.7h-1v-.7"/><path fill="#FFF" d="M28 21h-1.4l-.2.2v.2l.2.2h.2l.3.2h.4l.2.2.2.2.2.3v1.1h-.2v.2h-.2l-.3.2H27l-.2.2h-2l-.2-.2.2-1v.2h1.9v-.5h-.2v-.2H26l-.2-.2h-.2V22h-.2v-.3l-.2-.3v-1.3h.2v-.2h.2l.3-.2h2.3v1"/><path stroke="#FFF" stroke-width=".5" d="M28 21h-1.4l-.2.2v.2l.2.2h.2l.3.2h.4l.2.2.2.2.2.3v1.1h-.2v.2h-.2l-.3.2H27l-.2.2h-2l-.2-.2.2-1v.2h1.9v-.5h-.2v-.2H26l-.2-.2h-.2V22h-.2v-.3l-.2-.3v-1.3h.2v-.2h.2l.3-.2h2.3v1"/><path fill="#FFF" d="M29 19h1.2l-.2 1h.7l-.2 1h-.7l-.4 2.2v.2h.8v.8H30v.2h-1.5V24h-.2v-.5L29 19"/><path stroke="#FFF" stroke-width=".5" d="M29 19h1.2l-.2 1h.7l-.2 1h-.7l-.4 2.2v.2h.8v.8H30v.2h-1.5V24h-.2v-.5L29 19"/><path stroke="#FFF" stroke-width=".5" d="M31.6 22.5v.4h.2v.2h.2v.2h1.8l.2-.2v1h-.4v.2h-1.8l-.2-.2h-.4l-.2-.3v-.2l-.2-.2-.2-.2V23l-.2-.3v-1.2h.2V21h.2v-.3h.2l.2-.3h.2l.2-.3h2.1v.2h.3v.3l.2.2v.4l.2.3v1.1h-3v-.8h1.8V21h-.4v-.2H32v.4l-.2.2v.2l-.2 1"/><path fill="#FFF" d="M41.4 20.2H41V20h-1.7v.2H39l-.2.2-.2.3v.2l-.2.3v1.6h.4l.2.2h1.8v1l-.2.2h-.2l-.2.2h-1.6l-.2-.2-.3-.2-.2-.2v-.2h-.3v-.3l-.2-.3v-2.4h.2v-.4h.2V20h.2v-.4h.2v-.2h.2l.2-.2h.2V19h.7l.2-.2H41l.2.2h.4l-.2 1.2"/><path stroke="#FFF" stroke-width=".5" d="M41.4 20.2H41V20h-1.7v.2H39l-.2.2-.2.3v.2l-.2.3v1.6h.4l.2.2h1.8v1l-.2.2h-.2l-.2.2h-1.6l-.2-.2-.3-.2-.2-.2v-.2h-.3v-.3l-.2-.3v-2.4h.2v-.4h.2V20h.2v-.4h.2v-.2h.2l.2-.2h.2V19h.7l.2-.2H41l.2.2h.4l-.2 1.2"/><path fill="#FFF" d="M51.5 24.4h-1.2V24l-.2.2-.2.2h-1.2l-.2-.2-.2-.2-.2-.2v-.3l-.2-.2v-1.7l.2-.2V21h.2v-.2l.2-.2h.2v-.2h.3V20h1.4v.2h.2l.2.2.2.2.3-1.6h1l-.8 5.4"/><path stroke="#FFF" stroke-width=".5" d="M51.5 24.4h-1.2V24l-.2.2-.2.2h-1.2l-.2-.2-.2-.2-.2-.2v-.3l-.2-.2v-1.7l.2-.2V21h.2v-.2l.2-.2h.2v-.2h.3V20h1.4v.2h.2l.2.2.2.2.3-1.6h1l-.8 5.4"/><path fill="#FBB231" d="M49.6 23.4h.4l.2-.2V23h.2v-.2l.2-.2V21h-1v.2l-.2.2-.2.2v.3l-.2.2v.8h.2v.3h.4"/><path fill="#FFF" d="M24.4 23.5v1H23V24l-.2.2h-.2l-.2.2h-1.2L21 24h-.2v-1.5l.2-.2.2-.2.2-.2.2-.2h.6v-.2h1.4V21h-2.1l.3-1H24l.2.2.2.2.2.2v.6l-.4 2.2"/><path stroke="#FFF" stroke-width=".5" d="M24.4 23.5v1H23V24l-.2.2h-.2l-.2.2h-1.2L21 24h-.2v-1.5l.2-.2.2-.2.2-.2.2-.2h.6v-.2h1.4V21h-2.1l.3-1H24l.2.2.2.2.2.2v.6l-.4 2.2"/><path fill="#EC1C2E" d="M23.5 22.4h-1v.2H22v.9h1V23h.4v-.5"/><path fill="#FFF" d="M15.8 24.4h-1l.8-5.4h2l.2 3.2L19 19h2l-.8 5.4h-1l.6-4-1.7 4H17v-1.9l-.2-.7v-1.3l-.8 4"/><path stroke="#FFF" stroke-width=".5" d="M15.8 24.4h-1l.8-5.4h2l.2 3.2L19 19h2l-.8 5.4h-1l.6-4-1.7 4H17v-1.9l-.2-.7v-1.3l-.8 4"/><path fill="#FFF" d="M44.8 23.5l-.2 1h-1V24h-.2v.2H43v.2h-1.3l-.2-.2V24H41v-1.7h.2V22h.4l.2-.2h.9v-.2H44V21l-.2-.2h-2l.2-1h2.6v.2h.2v.2h.2v.2h.2v.6l-.4 2.2m-.2 1.2l.2-1-.2 1m-1 0h1-1m0-.4v.4-.4"/><path fill="#FFF" d="M42 24.5h1v-.2h.2l.2-.2h.2-.2v.2H43l-.2.2H42m-1-1.3v.8h.2v.2l.2.2h.2v.2h.3-.4V24H41v-1"/><path fill="#FFF" d="M42.5 21.6H42l-.2.2h-.2v.2h-.2l-.2.2v.2H41v.4l-.2.3v.2-.3l.2-.2v-.4h.2V22h.5v-.2h.4v-.2m1.3 0h-.8.8m.6 0h-.7.7m0-.3v.2-.2m-.5-.3h.2l.2.2-.2-.2h-.2m-1.8 0h1.7H42m0-1l-.3 1 .3-1v.2m1.8-.2H42v.2h.2l.2-.2h1.3m1.5 1.3v-.6H45v-.2h-.2V20h-.2l-.3-.2h-.4.7l.2.2h.2v.2h.2v.2l.2.3v.3m-.6 2.5l.4-2.2-.4 2.2"/><path fill="#FBB231" d="M43.8 22.4h-1l-.2.2-.2.2v.7h1.2V23h.2v-.4l.2-.2v-.2"/><path fill="#FFF" d="M52.2 23.8v-.2h.2v-.2h.8v.2h.2v.2H53v-.2l-.2-.2h-.4l-.2.2v.2H52"/><path fill="#FFF" d="M52.6 23.8v-.2h.4v.2h-.4"/><path fill="#FFF" d="M52.2 23.8v.4h.2v.2h.8V24l.2-.2v-.2l-.2.2v.2h-.8v-.4H52"/><path fill="#FFF" d="M52.6 23.8v.3h.4v-.2h-.4"/><path stroke="#FFF" stroke-width=".5" d="M52.2 24v-.5h.2l.2-.2h.7v.2l.2.2v.4H53l-.2.2h-.5V24H52m.5 0v-.4h.2v.3l-.2-.3v.2m0 .3h.2l.2-.2v-.4l-.2-.2h-.4l-.2.2v.8h.4"/><path fill="#FFF" d="M45 24.4h1.2l.5-2.3v-.4l.2-.2V21h.4l.2-.2h.3l.2-1h-.4l-.2.2H47v.2l-.2.2V20h-1l-1 4.4"/><path stroke="#FFF" stroke-width=".5" d="M45 24.4h1.2l.5-2.3v-.4l.2-.2V21h.4l.2-.2h.3l.2-1h-.4l-.2.2H47v.2l-.2.2V20h-1l-1 4.4"/><path fill="#FFF" d="M34.2 24.4h1.2l.4-2.3v-.4h.2v-.2h.2V21h.8v-.4h.2v-.5h.2V20h-.8v.2h-.2v.2H36v.2l.2-.6H35l-.8 4.4"/><path stroke="#FFF" stroke-width=".5" d="M34.2 24.4h1.2l.4-2.3v-.4h.2v-.2h.2V21h.8v-.4h.2v-.5h.2V20h-.8v.2h-.2v.2H36v.2l.2-.6H35l-.8 4.4"/><path fill="#FBB231" d="M52.2 28.8v-.2h.2v-.2h.8v.2h.2v.2h-.2v-.2l-.2-.2h-.4l-.2.2v.2H52"/><path fill="#FBB231" d="M52.6 28.8v-.2h.4v.2h-.4m0 0h.4-.4m.7 0"/><path fill="#FBB231" d="M52.2 28.8v.4h.2l.2.2h.7V29l.2-.2v-.2l-.2.2v.2h-.8v-.4H52"/><path fill="#FBB231" d="M52.6 28.8v.3h.4v-.2h-.4"/><path fill="#FFF" d="M34.4 21.3V21H34v-.3l-.2-.2h-.2V20h-1.8l-.2.2h-.2l-.2.2-.2.2-.2.3-.2.3v2.1l.2.2v.2h.3l.3.3v.2h.7l.3.2H34v-1h-.2l-.2.2h-1.2l-.2-.2H32V23h-.4v-.4h2.7V21zm-1.2.4h-1.4V21H33v.2h.2v.4z"/></g></symbol><symbol viewBox="0 0 68 43" id="icon-visa" xmlns="http://www.w3.org/2000/svg"><g fill="none" fill-rule="evenodd"><rect width="67.7" height="42.7" fill="#F9F9F9" rx="2.2"/><path fill="#0066B2" d="M31.2 27.7h-3.4l2-12.8h3.4M25 15l-3 8.7-.5-2-1-5.6c-.2-.7-1-1.2-1.6-1h-5.4v.2c1.2.3 2.4.8 3.4 1.4l3 11.2h3.4l5.2-13H25zm26 12.8h3l-2.5-13h-2.7c-.7 0-1.3.5-1.5 1l-5 12h3.5l.7-2h4.2l.4 2zm-3.6-4.6l1.8-4.8 1 4.8h-2.8zM42.6 18l.5-2.8c-1-.3-2-.5-3-.5-1.5 0-5.5.7-5.5 4.2 0 3.3 4.6 3.3 4.6 5 0 1.8-4 1.5-5.3.4l-.5 2.8c1.2.5 2.4.8 3.7.7 2.2 0 5.6-1.2 5.6-4.4 0-3.4-4.6-3.7-4.6-5 0-1.6 3.2-1.4 4.6-.6z"/><path fill="#F9A533" d="M21.5 21.8l-1-5.7c-.2-.7-1-1.2-1.6-1h-5.4v.2c1.8.4 3.5 1.3 5 2.4 1.3 1 2.3 2.6 3 4.2z"/></g></symbol><symbol viewBox="0 0 68 43" id="icon-wire-transfer" xmlns="http://www.w3.org/2000/svg"><defs><linearGradient x1="0%" y1="50.1%" y2="50.1%" id="aga"><stop stop-color="#41E700" stop-opacity="0" offset="0%"/><stop stop-color="#3ACD00" offset="74%"/><stop stop-color="#36BE00" offset="78%"/><stop stop-color="#299100" offset="93%"/><stop stop-color="#248000" offset="100%"/></linearGradient></defs><g fill="none" fill-rule="evenodd"><path d="M68 40.7c0 .6-.3 1.2-.7 1.6-.4.4-1 .7-1.6.7H2.3c-.6 0-1.2-.3-1.6-.7-.5-.4-.7-1-.7-1.6V2.3C0 1.7.2 1 .7.7 1 .2 1.7 0 2.3 0h63.4c.6 0 1.2.2 1.6.7.4.4.6 1 .6 1.6v38.4z" fill="#F9F9F9"/><path fill="#00AFD8" d="M8 32v-6H6v-2h5.6v2H10v6m3 0v-8h4l1 .5c.2.2.4.5.5 1 .2.2.3.6.3 1 0 .6-.2 1-.5 1.5-.3.4-.8.7-1.3.8l2.2 3.2h-2.5L15 29v3h-2zm2-4.2h.3c.5 0 .8 0 1-.3.2 0 .3-.4.3-.7 0-.4 0-.7-.2-1H15v2z"/><path d="M19 32l2.8-8h2.7l2.7 8h-2l-.5-1.5h-3L21 32h-2zm3-3h2.2l-.8-2.6V26l-.3-.7v1.1L22 29zm6 3v-8h2l3 4c0 .3.2.4.3.6 0 .3.3.6.4 1V24h2v8h-2l-3-4.2c-.2 0-.3-.3-.4-.5l-.4-.8V32h-2zm9.7-2.6l1 .8c.2.2.6.3 1 .3 0 0 .4 0 .6-.2l.3-.6c0-.3 0-.5-.3-.7l-1-.4c-.8-.2-1.4-.5-1.7-.8-.3-.4-.5-.8-.5-1.4 0-.7.4-1.4 1-2 .4-.4 1-.6 2-.6.3 0 .7 0 1 .2.5 0 1 .3 1.2.5l-.7 1.6-.7-.4-.8-.2c-.2 0-.4 0-.6.2-.2 0-.3.3-.3.5 0 .3.2.5.3.6l1 .3c.8.2 1.4.5 1.7.7l.4.8.2 1c0 .7-.3 1.4-1 2-.4.4-1 .7-2 .7-.6 0-1 0-1.6-.3-.4-.3-1-.6-1.3-1l1-1.6zm6.1 2.6v-8h4.8v1.7H46V27h2.5v2H46v3m3.8 0v-8h4.8v1.7H52V27h2.5v2H52v1.4h2.6V32h-4.8m6.2 0v-8h4l1 .5c.3.2.5.5.7 1l.2 1c0 .6-.2 1-.5 1.5-.4.4-.8.7-1.3.8l2 3.2H60l-2-3v3h-2zm2-4.2h.5c.4 0 .8 0 1-.3.2 0 .3-.4.3-.7 0-.4 0-.7-.3-1H58v2z" fill="#00AFD8"/><path d="M30.8 11l1.5 5.5c0 .2 0 .5.2.8v1l.3-1c0-.4 0-.6.2-.8l1.3-5.5h3.2l-3.3 11.5h-2.8l-1.4-5-.3-1v-.4l-.2.5-.3 1-1.4 5h-3L22 11h3l1.3 5.5c.2.3.3.6.3 1 0 .2 0 .4.2.7v-.7c.2-.2.3-.5.4-1l1.3-5.5H31zm7.8 11.5V11h3.2v11.5m2.5 0V11h3.2c1.3 0 2.2 0 2.7.2.4 0 1 .3 1.3.6.4.3.7.7 1 1.2 0 .5.3 1 .2 1.6 0 1-.2 1.6-.6 2.2-.3.5-1 1-1.8 1l3 4.7H50L47.2 18v4.5h-3zm3-6h.5c.6 0 1-.2 1.4-.4.3 0 .5-.5.5-1 0-.6-.2-1-.4-1.2-.3-.3-.8-.4-1.5-.4h-.6v3zm7.2 6V11h7v2.5h-4v2h3.8V18h-3.8v2h4v2.5" fill="#006E90"/><path fill="url(#aga)" d="M6.3 11h14.2v2H6.3zm0 4.4h14.2v2.3H6.3zm0 4.8h14.2v2.3H6.3z"/></g></symbol></svg>